<svg xmlns="http://www.w3.org/2000/svg" xmlns:xlink="http://www.w3.org/1999/xlink" width="410" zoomAndPan="magnify" viewBox="0 0 307.5 302.999993" height="404" preserveAspectRatio="xMidYMid meet" version="1.0"><defs><g/><clipPath id="e903ede0b0"><path d="M 0 0.246094 L 307 0.246094 L 307 302.753906 L 0 302.753906 Z M 0 0.246094 " clip-rule="nonzero"/></clipPath><clipPath id="a0f4a68f09"><path d="M 0 0.246094 L 198 0.246094 L 198 273 L 0 273 Z M 0 0.246094 " clip-rule="nonzero"/></clipPath><clipPath id="ac6d656fb8"><path d="M 97 0.246094 L 307 0.246094 L 307 269 L 97 269 Z M 97 0.246094 " clip-rule="nonzero"/></clipPath></defs><g clip-path="url(#e903ede0b0)"><path fill="#ffffff" d="M 0 0.246094 L 307.5 0.246094 L 307.5 309.996094 L 0 309.996094 Z M 0 0.246094 " fill-opacity="1" fill-rule="nonzero"/><path fill="#ffffff" d="M 0 0.246094 L 307.5 0.246094 L 307.5 303.246094 L 0 303.246094 Z M 0 0.246094 " fill-opacity="1" fill-rule="nonzero"/><path fill="#fffaf6" d="M 0 0.246094 L 307.5 0.246094 L 307.5 303.246094 L 0 303.246094 Z M 0 0.246094 " fill-opacity="1" fill-rule="nonzero"/></g><g fill="#808080" fill-opacity="1"><g transform="translate(57.823064, 234.125551)"><g><path d="M -17.265625 -200.390625 L 37.703125 -207.578125 C 51.921875 -209.441406 63.101562 -206.894531 71.25 -199.9375 C 79.40625 -192.988281 84.578125 -181.796875 86.765625 -166.359375 L 99.421875 -73.1875 C 102.140625 -53.5625 100.664062 -38.34375 95 -27.53125 C 89.34375 -16.726562 78.472656 -10.273438 62.390625 -8.171875 L 8.8125 -1.15625 Z M 51.28125 -42.578125 C 58.550781 -43.535156 61.71875 -47.566406 60.78125 -54.671875 L 47.34375 -157.421875 C 46.75 -161.910156 45.957031 -165.226562 44.96875 -167.375 C 43.988281 -169.519531 42.519531 -170.851562 40.5625 -171.375 C 38.613281 -171.90625 35.703125 -171.921875 31.828125 -171.421875 L 27.421875 -170.84375 L 44.328125 -41.671875 Z M 51.28125 -42.578125 "/></g></g></g><g fill="#808080" fill-opacity="1"><g transform="translate(147.782217, 219.488973)"><g><path d="M 52.8125 9.203125 C 43.695312 7.941406 35.675781 5.019531 28.75 0.4375 C 21.832031 -4.144531 16.722656 -10.164062 13.421875 -17.625 C 10.117188 -25.082031 9.140625 -33.675781 10.484375 -43.40625 L 17.390625 -93.234375 L 56.5625 -87.8125 L 49.984375 -40.3125 C 49.492188 -36.757812 49.835938 -33.835938 51.015625 -31.546875 C 52.191406 -29.265625 54.320312 -27.910156 57.40625 -27.484375 C 60.34375 -27.078125 62.675781 -27.734375 64.40625 -29.453125 C 66.144531 -31.179688 67.257812 -33.820312 67.75 -37.375 L 88.96875 -190.53125 L 129.0625 -184.96875 L 108.390625 -35.75 C 106.953125 -25.40625 103.644531 -16.613281 98.46875 -9.375 C 93.300781 -2.144531 86.753906 3.082031 78.828125 6.3125 C 70.910156 9.550781 62.238281 10.515625 52.8125 9.203125 Z M 52.8125 9.203125 "/></g></g></g><g clip-path="url(#a0f4a68f09)"><path stroke-linecap="butt" transform="matrix(0.88971, -0.116436, 0.116436, 0.88971, 17.094946, -8.427009)" fill="none" stroke-linejoin="miter" d="M 9.927756 37.087386 L 71.666447 37.088658 C 87.665399 37.088186 99.650468 41.523652 107.626536 50.391307 C 115.647666 59.216564 119.740564 72.326521 119.913296 89.726626 L 120.419669 194.554015 C 120.59247 216.616814 116.770268 233.20872 108.962825 244.322232 C 101.159133 255.440626 88.217278 260.999989 70.141576 261.000887 L 9.930464 261.001958 Z M 62.817942 221.349188 C 71.011018 221.34575 75.102224 217.358977 75.105638 209.381931 L 75.102711 93.863764 C 75.104104 88.854415 74.699745 85.100326 73.894515 82.597746 C 73.130032 80.052204 71.688389 78.353213 69.564705 77.504524 C 67.486084 76.613438 64.28228 76.167813 59.95761 76.168215 L 54.991991 76.168154 L 54.989919 221.347714 Z M 62.817942 221.349188 " stroke="#000000" stroke-width="9.776325" stroke-opacity="1" stroke-miterlimit="4"/></g><g clip-path="url(#ac6d656fb8)"><path stroke-linecap="butt" transform="matrix(0.888807, 0.123141, -0.123141, 0.888807, 169.583865, -22.827842)" fill="none" stroke-linejoin="miter" d="M 59.703469 263.102114 C 49.432372 263.101181 40.119682 261.104011 31.761681 257.115513 C 23.442023 253.086544 16.887896 247.208814 12.091273 239.487831 C 7.342682 231.764589 4.963815 222.429707 4.963299 211.481992 L 4.964519 155.406827 L 49.006552 155.409517 L 49.008364 208.873669 C 49.006906 212.860079 49.83505 216.045939 51.491006 218.418315 C 53.146494 220.755595 55.711961 221.920806 59.192912 221.921975 C 62.502105 221.920571 64.962564 220.836938 66.574886 218.675389 C 68.229265 216.468459 69.056884 213.369633 69.058343 209.383224 L 69.056423 37.088791 L 114.183275 37.086216 L 114.183098 204.924473 C 114.183011 216.597437 111.872319 226.819368 107.24419 235.604397 C 102.663028 244.34776 96.234613 251.114426 87.959544 255.908706 C 79.728193 260.701325 70.308263 263.100764 59.703469 263.102114 Z M 59.703469 263.102114 " stroke="#000000" stroke-width="9.776325" stroke-opacity="1" stroke-miterlimit="4"/></g><path stroke-linecap="butt" transform="matrix(0.749626, 0, 0, 0.75, 83.209669, 234.390659)" fill="none" stroke-linejoin="miter" d="M 0.00169211 2.999955 L 188.105872 2.999955 " stroke="#000000" stroke-width="6" stroke-opacity="1" stroke-miterlimit="4"/><path stroke-linecap="butt" transform="matrix(0.749626, 0, 0, 0.75, 83.209669, 268.32874)" fill="none" stroke-linejoin="miter" d="M 0.00169211 2.99918 L 188.105872 2.99918 " stroke="#000000" stroke-width="6" stroke-opacity="1" stroke-miterlimit="4"/><g fill="#000000" fill-opacity="1"><g transform="translate(76.418425, 260.450977)"><g><path d="M 0.828125 -18.8125 L 6.03125 -18.8125 C 7.375 -18.8125 8.378906 -18.4375 9.046875 -17.6875 C 9.722656 -16.945312 10.066406 -15.847656 10.078125 -14.390625 L 10.125 -5.59375 C 10.132812 -3.726562 9.8125 -2.328125 9.15625 -1.390625 C 8.5 -0.460938 7.410156 0 5.890625 0 L 0.828125 0 Z M 5.28125 -3.328125 C 5.96875 -3.328125 6.3125 -3.664062 6.3125 -4.34375 L 6.3125 -14.046875 C 6.3125 -14.460938 6.273438 -14.773438 6.203125 -14.984375 C 6.140625 -15.203125 6.019531 -15.347656 5.84375 -15.421875 C 5.675781 -15.492188 5.40625 -15.53125 5.03125 -15.53125 L 4.625 -15.53125 L 4.625 -3.328125 Z M 5.28125 -3.328125 "/></g></g></g><g fill="#000000" fill-opacity="1"><g transform="translate(91.59752, 260.450977)"><g><path d="M 0.328125 0 L 2.140625 -18.8125 L 8.515625 -18.8125 L 10.3125 0 L 6.75 0 L 6.484375 -3.046875 L 4.203125 -3.046875 L 3.984375 0 Z M 4.484375 -6.046875 L 6.203125 -6.046875 L 5.359375 -15.625 L 5.1875 -15.625 Z M 4.484375 -6.046875 "/></g></g></g><g fill="#000000" fill-opacity="1"><g transform="translate(106.601406, 260.450977)"><g><path d="M 0.828125 0 L 0.828125 -18.8125 L 4.578125 -18.8125 L 4.578125 -12.09375 L 6.359375 -12.09375 L 6.359375 -18.8125 L 10.09375 -18.8125 L 10.09375 0 L 6.359375 0 L 6.359375 -8.546875 L 4.578125 -8.546875 L 4.578125 0 Z M 0.828125 0 "/></g></g></g><g fill="#000000" fill-opacity="1"><g transform="translate(121.911907, 260.450977)"><g><path d="M 0.328125 0 L 2.140625 -18.8125 L 8.515625 -18.8125 L 10.3125 0 L 6.75 0 L 6.484375 -3.046875 L 4.203125 -3.046875 L 3.984375 0 Z M 4.484375 -6.046875 L 6.203125 -6.046875 L 5.359375 -15.625 L 5.1875 -15.625 Z M 4.484375 -6.046875 "/></g></g></g><g fill="#000000" fill-opacity="1"><g transform="translate(136.915792, 260.450977)"><g><path d="M 0.828125 -18.8125 L 6.609375 -18.8125 C 7.535156 -18.8125 8.25 -18.601562 8.75 -18.1875 C 9.25 -17.769531 9.585938 -17.1875 9.765625 -16.4375 C 9.941406 -15.6875 10.03125 -14.726562 10.03125 -13.5625 C 10.03125 -12.488281 9.890625 -11.65625 9.609375 -11.0625 C 9.335938 -10.46875 8.859375 -10.050781 8.171875 -9.8125 C 8.742188 -9.695312 9.15625 -9.410156 9.40625 -8.953125 C 9.664062 -8.503906 9.796875 -7.894531 9.796875 -7.125 L 9.75 0 L 6.0625 0 L 6.0625 -7.359375 C 6.0625 -7.890625 5.957031 -8.226562 5.75 -8.375 C 5.550781 -8.519531 5.179688 -8.59375 4.640625 -8.59375 L 4.640625 0 L 0.828125 0 Z M 5.5625 -11.84375 C 6.09375 -11.84375 6.359375 -12.414062 6.359375 -13.5625 C 6.359375 -14.0625 6.332031 -14.429688 6.28125 -14.671875 C 6.238281 -14.921875 6.160156 -15.09375 6.046875 -15.1875 C 5.929688 -15.28125 5.765625 -15.328125 5.546875 -15.328125 L 4.671875 -15.328125 L 4.671875 -11.84375 Z M 5.5625 -11.84375 "/></g></g></g><g fill="#000000" fill-opacity="1"><g transform="translate(151.744469, 260.450977)"><g/></g></g><g fill="#000000" fill-opacity="1"><g transform="translate(161.251145, 260.450977)"><g><path d="M 5.015625 0.171875 C 4.148438 0.171875 3.367188 0.00390625 2.671875 -0.328125 C 1.972656 -0.660156 1.421875 -1.148438 1.015625 -1.796875 C 0.617188 -2.453125 0.421875 -3.238281 0.421875 -4.15625 L 0.421875 -8.875 L 4.125 -8.875 L 4.125 -4.375 C 4.125 -4.039062 4.191406 -3.773438 4.328125 -3.578125 C 4.460938 -3.378906 4.675781 -3.28125 4.96875 -3.28125 C 5.25 -3.28125 5.457031 -3.367188 5.59375 -3.546875 C 5.738281 -3.734375 5.8125 -4 5.8125 -4.34375 L 5.8125 -18.8125 L 9.59375 -18.8125 L 9.59375 -4.703125 C 9.59375 -3.722656 9.398438 -2.863281 9.015625 -2.125 C 8.628906 -1.394531 8.085938 -0.828125 7.390625 -0.421875 C 6.703125 -0.0234375 5.910156 0.171875 5.015625 0.171875 Z M 5.015625 0.171875 "/></g></g></g><g fill="#000000" fill-opacity="1"><g transform="translate(175.838909, 260.450977)"><g><path d="M 5.328125 0.171875 C 3.804688 0.171875 2.648438 -0.289062 1.859375 -1.21875 C 1.066406 -2.144531 0.671875 -3.445312 0.671875 -5.125 L 0.671875 -14.078125 C 0.671875 -15.703125 1.066406 -16.925781 1.859375 -17.75 C 2.648438 -18.582031 3.804688 -19 5.328125 -19 C 6.835938 -19 7.988281 -18.582031 8.78125 -17.75 C 9.570312 -16.925781 9.96875 -15.703125 9.96875 -14.078125 L 9.96875 -5.125 C 9.96875 -3.425781 9.570312 -2.117188 8.78125 -1.203125 C 7.988281 -0.285156 6.835938 0.171875 5.328125 0.171875 Z M 5.328125 -3.28125 C 5.660156 -3.28125 5.882812 -3.425781 6 -3.71875 C 6.113281 -4.007812 6.171875 -4.421875 6.171875 -4.953125 L 6.171875 -14.15625 C 6.171875 -14.5625 6.113281 -14.890625 6 -15.140625 C 5.894531 -15.398438 5.675781 -15.53125 5.34375 -15.53125 C 4.71875 -15.53125 4.40625 -15.054688 4.40625 -14.109375 L 4.40625 -4.921875 C 4.40625 -4.390625 4.46875 -3.984375 4.59375 -3.703125 C 4.726562 -3.421875 4.972656 -3.28125 5.328125 -3.28125 Z M 5.328125 -3.28125 "/></g></g></g><g fill="#000000" fill-opacity="1"><g transform="translate(190.864706, 260.450977)"><g><path d="M 4.703125 0.171875 C 3.347656 0.171875 2.335938 -0.300781 1.671875 -1.25 C 1.003906 -2.207031 0.671875 -3.660156 0.671875 -5.609375 L 0.671875 -13.71875 C 0.671875 -15.445312 1.054688 -16.757812 1.828125 -17.65625 C 2.609375 -18.550781 3.765625 -19 5.296875 -19 C 6.535156 -19 7.5 -18.75 8.1875 -18.25 C 8.875 -17.75 9.347656 -17.023438 9.609375 -16.078125 C 9.878906 -15.128906 10.015625 -13.910156 10.015625 -12.421875 L 6.328125 -12.421875 L 6.328125 -14.109375 C 6.328125 -14.554688 6.265625 -14.90625 6.140625 -15.15625 C 6.015625 -15.40625 5.789062 -15.53125 5.46875 -15.53125 C 4.757812 -15.53125 4.40625 -15.0625 4.40625 -14.125 L 4.40625 -5.015625 C 4.40625 -4.441406 4.476562 -4.007812 4.625 -3.71875 C 4.769531 -3.425781 5.023438 -3.28125 5.390625 -3.28125 C 5.753906 -3.28125 6.007812 -3.425781 6.15625 -3.71875 C 6.300781 -4.007812 6.375 -4.441406 6.375 -5.015625 L 6.375 -7.71875 L 5.359375 -7.71875 L 5.359375 -10.953125 L 9.96875 -10.953125 L 9.96875 0 L 8.453125 0 L 7.828125 -1.578125 C 7.148438 -0.410156 6.109375 0.171875 4.703125 0.171875 Z M 4.703125 0.171875 "/></g></g></g><g fill="#000000" fill-opacity="1"><g transform="translate(205.868587, 260.450977)"><g><path d="M 5.015625 0.171875 C 4.148438 0.171875 3.367188 0.00390625 2.671875 -0.328125 C 1.972656 -0.660156 1.421875 -1.148438 1.015625 -1.796875 C 0.617188 -2.453125 0.421875 -3.238281 0.421875 -4.15625 L 0.421875 -8.875 L 4.125 -8.875 L 4.125 -4.375 C 4.125 -4.039062 4.191406 -3.773438 4.328125 -3.578125 C 4.460938 -3.378906 4.675781 -3.28125 4.96875 -3.28125 C 5.25 -3.28125 5.457031 -3.367188 5.59375 -3.546875 C 5.738281 -3.734375 5.8125 -4 5.8125 -4.34375 L 5.8125 -18.8125 L 9.59375 -18.8125 L 9.59375 -4.703125 C 9.59375 -3.722656 9.398438 -2.863281 9.015625 -2.125 C 8.628906 -1.394531 8.085938 -0.828125 7.390625 -0.421875 C 6.703125 -0.0234375 5.910156 0.171875 5.015625 0.171875 Z M 5.015625 0.171875 "/></g></g></g><g fill="#000000" fill-opacity="1"><g transform="translate(220.456343, 260.450977)"><g><path d="M 0.328125 0 L 2.140625 -18.8125 L 8.515625 -18.8125 L 10.3125 0 L 6.75 0 L 6.484375 -3.046875 L 4.203125 -3.046875 L 3.984375 0 Z M 4.484375 -6.046875 L 6.203125 -6.046875 L 5.359375 -15.625 L 5.1875 -15.625 Z M 4.484375 -6.046875 "/></g></g></g></svg>